<?xml version="1.0" encoding="UTF-8" standalone="no"?>
<svg
   xmlns:dc="http://purl.org/dc/elements/1.1/"
   xmlns:cc="http://creativecommons.org/ns#"
   xmlns:rdf="http://www.w3.org/1999/02/22-rdf-syntax-ns#"
   xmlns:svg="http://www.w3.org/2000/svg"
   xmlns="http://www.w3.org/2000/svg"
   xmlns:xlink="http://www.w3.org/1999/xlink"
   xmlns:sodipodi="http://sodipodi.sourceforge.net/DTD/sodipodi-0.dtd"
   xmlns:inkscape="http://www.inkscape.org/namespaces/inkscape"
   width="60.932259mm"
   height="58.997433mm"
   viewBox="0 0 60.932259 58.997433"
   version="1.1"
   id="svg8"
   inkscape:version="1.0.2-2 (e86c870879, 2021-01-15)"
   sodipodi:docname="d10_10.svg">
  <defs
     id="defs2">
    <rect
       x="66.193077"
       y="128.98438"
       width="12.331473"
       height="15.40253"
       id="rect22" />
    <rect
       x="66.193077"
       y="128.98438"
       width="12.331473"
       height="15.40253"
       id="rect22-3" />
    <rect
       x="66.193077"
       y="128.98438"
       width="12.331473"
       height="15.40253"
       id="rect35" />
  </defs>
  <sodipodi:namedview
     id="base"
     pagecolor="#ffffff"
     bordercolor="#666666"
     borderopacity="1.0"
     inkscape:pageopacity="0.0"
     inkscape:pageshadow="2"
     inkscape:zoom="2.8284271"
     inkscape:cx="141.65212"
     inkscape:cy="113.85698"
     inkscape:document-units="mm"
     inkscape:current-layer="layer1"
     inkscape:document-rotation="0"
     showgrid="false"
     showborder="true"
     fit-margin-top="0"
     fit-margin-left="0"
     fit-margin-right="0"
     fit-margin-bottom="0"
     inkscape:window-width="1920"
     inkscape:window-height="1027"
     inkscape:window-x="-8"
     inkscape:window-y="-8"
     inkscape:window-maximized="1" />
  <metadata
     id="metadata5">
    <rdf:RDF>
      <cc:Work
         rdf:about="">
        <dc:format>image/svg+xml</dc:format>
        <dc:type
           rdf:resource="http://purl.org/dc/dcmitype/StillImage" />
        <dc:title></dc:title>
      </cc:Work>
    </rdf:RDF>
  </metadata>
  <g
     inkscape:label="Layer 1"
     inkscape:groupmode="layer"
     id="layer1"
     transform="translate(-40.343615,-107.33168)">
    <path
       id="path16"
       style="fill:#ff9955;fill-rule:evenodd;stroke-width:0.999999"
       inkscape:transform-center-x="0.47198395"
       inkscape:transform-center-y="-9.7658359"
       d="M 78.152344,0 0.11328125,135.17188 78.152344,180.33398 156.19336,135.17188 Z"
       transform="matrix(0.26458333,0,0,0.26458333,50.131709,107.33168)" />
    <path
       style="font-style:normal;font-variant:normal;font-weight:normal;font-stretch:normal;font-size:18.3712px;line-height:1.25;font-family:'Arial Rounded MT Bold';-inkscape-font-specification:'Arial Rounded MT Bold, Normal';font-variant-ligatures:normal;font-variant-caps:normal;font-variant-numeric:proportional-nums;font-variant-east-asian:normal;fill:#ffffff;stroke-width:0.264583"
       sodipodi:type="inkscape:offset"
       inkscape:radius="0"
       inkscape:original="M 81.84375 128.39844 C 80.910837 128.39844 80.105451 128.62558 79.429688 129.08008 C 78.759904 129.52859 78.249317 130.18377 77.896484 131.04492 C 77.693157 131.5652 77.542949 132.18655 77.447266 132.91016 C 77.351582 133.63376 77.304688 134.44855 77.304688 135.35156 C 77.304688 136.05125 77.345965 136.70264 77.429688 137.30664 C 77.519391 137.90466 77.65641 138.45091 77.841797 138.94727 C 78.20659 139.85626 78.749172 140.56773 79.466797 141.08203 C 80.190402 141.59633 81.005071 141.85352 81.914062 141.85352 C 82.70345 141.85352 83.422497 141.66203 84.068359 141.2793 C 84.714222 140.89656 85.23983 140.3541 85.646484 139.64844 C 85.969416 139.07434 86.190943 138.43418 86.310547 137.72852 C 86.430151 137.02285 86.490234 136.17997 86.490234 135.19922 C 86.490234 133.3932 86.26309 131.9965 85.808594 131.00977 C 85.545465 130.44165 85.222577 129.96476 84.839844 129.58203 C 84.463091 129.19332 84.023822 128.90047 83.521484 128.70312 C 83.019147 128.4998 82.459711 128.39844 81.84375 128.39844 z M 72.101562 128.41602 C 71.820493 128.41602 71.629007 128.47048 71.527344 128.57812 C 71.42568 128.68577 71.207939 128.973 70.873047 129.43945 C 70.538155 129.90591 70.151399 130.32832 69.714844 130.70508 C 69.284269 131.08183 68.70798 131.44038 67.984375 131.78125 C 67.499978 132.0085 67.16207 132.19241 66.970703 132.33594 C 66.779336 132.47946 66.683594 132.70477 66.683594 133.00977 C 66.683594 133.27289 66.779336 133.50566 66.970703 133.70898 C 67.16805 133.90633 67.391409 134.00586 67.642578 134.00586 C 68.168836 134.00586 69.191965 133.422 70.710938 132.25586 L 70.710938 140.41992 C 70.710938 140.89834 70.821701 141.25872 71.042969 141.50391 C 71.264236 141.74909 71.557082 141.87305 71.921875 141.87305 C 72.741164 141.87305 73.150391 141.27038 73.150391 140.06836 L 73.150391 129.79883 C 73.150391 129.36825 73.054648 129.03034 72.863281 128.78516 C 72.671915 128.53997 72.418514 128.41602 72.101562 128.41602 z M 81.878906 130.21875 C 82.429085 130.21875 82.858951 130.399 83.169922 130.75781 C 83.480893 131.11064 83.70242 131.63625 83.833984 132.33594 C 83.965549 133.02964 84.03125 133.92515 84.03125 135.01953 C 84.03125 136.17371 83.969334 137.10671 83.84375 137.81836 C 83.718166 138.53 83.500424 139.07625 83.189453 139.45898 C 82.878482 139.84172 82.446664 140.0332 81.896484 140.0332 C 81.364246 140.0332 80.943783 139.85112 80.632812 139.48633 C 80.321842 139.11556 80.100315 138.57114 79.96875 137.85352 C 79.837185 137.13589 79.771484 136.21412 79.771484 135.08984 C 79.771484 133.43333 79.923525 132.20748 80.228516 131.41211 C 80.539486 130.61674 81.089519 130.21875 81.878906 130.21875 z "
       xlink:href="#text64"
       id="path1453"
       d="m 81.84375,128.39844 c -0.932913,0 -1.738299,0.22714 -2.414062,0.68164 -0.669784,0.44851 -1.180371,1.10369 -1.533204,1.96484 -0.203327,0.52028 -0.353535,1.14163 -0.449218,1.86524 -0.09568,0.7236 -0.142578,1.53839 -0.142578,2.4414 0,0.69969 0.04128,1.35108 0.125,1.95508 0.0897,0.59802 0.226722,1.14427 0.412109,1.64063 0.364793,0.90899 0.907375,1.62046 1.625,2.13476 0.723605,0.5143 1.538274,0.77149 2.447265,0.77149 0.789388,0 1.508435,-0.19149 2.154297,-0.57422 0.645863,-0.38274 1.171471,-0.9252 1.578125,-1.63086 0.322932,-0.5741 0.544459,-1.21426 0.664063,-1.91992 0.119604,-0.70567 0.179687,-1.54855 0.179687,-2.5293 0,-1.80602 -0.227144,-3.20272 -0.68164,-4.18945 -0.263129,-0.56812 -0.586017,-1.04501 -0.96875,-1.42774 -0.376753,-0.38871 -0.816022,-0.68156 -1.31836,-0.87891 -0.502337,-0.20332 -1.061773,-0.30468 -1.677734,-0.30468 z m -9.742188,0.0176 c -0.281069,0 -0.472555,0.0545 -0.574218,0.1621 -0.101664,0.10765 -0.319405,0.39488 -0.654297,0.86133 -0.334892,0.46646 -0.721648,0.88887 -1.158203,1.26563 -0.430575,0.37675 -1.006864,0.7353 -1.730469,1.07617 -0.484397,0.22725 -0.822305,0.41116 -1.013672,0.55469 -0.191367,0.14352 -0.287109,0.36883 -0.287109,0.67383 0,0.26312 0.09574,0.49589 0.287109,0.69921 0.197347,0.19735 0.420706,0.29688 0.671875,0.29688 0.526258,0 1.549387,-0.58386 3.06836,-1.75 v 8.16406 c 0,0.47842 0.110763,0.8388 0.332031,1.08399 0.221267,0.24518 0.514113,0.36914 0.878906,0.36914 0.819289,0 1.228516,-0.60267 1.228516,-1.80469 v -10.26953 c 0,-0.43058 -0.09574,-0.76849 -0.28711,-1.01367 -0.191366,-0.24519 -0.444767,-0.36914 -0.761719,-0.36914 z m 9.777344,1.80273 c 0.550179,0 0.980045,0.18025 1.291016,0.53906 0.310971,0.35283 0.532498,0.87844 0.664062,1.57813 0.131565,0.6937 0.197266,1.58921 0.197266,2.68359 0,1.15418 -0.06192,2.08718 -0.1875,2.79883 -0.125584,0.71164 -0.343326,1.25789 -0.654297,1.64062 -0.310971,0.38274 -0.742789,0.57422 -1.292969,0.57422 -0.532238,0 -0.952701,-0.18208 -1.263672,-0.54687 -0.31097,-0.37077 -0.532497,-0.91519 -0.664062,-1.63281 -0.131565,-0.71763 -0.197266,-1.6394 -0.197266,-2.76368 0,-1.65651 0.152041,-2.88236 0.457032,-3.67773 0.31097,-0.79537 0.861003,-1.19336 1.65039,-1.19336 z"
       inkscape:href="#text64"
       transform="translate(-5.7771697)" />
    <path
       style="fill:#c87137;stroke:none;stroke-width:0.264583px;stroke-linecap:butt;stroke-linejoin:miter;stroke-opacity:1"
       d="m 70.809709,107.33168 -20.64827,35.76441 -9.817824,-0.72686 0.965931,-11.10471 z"
       id="path491-3"
       sodipodi:nodetypes="ccccc" />
    <path
       id="path1338"
       style="fill:#a05a2c;stroke:none;stroke-width:0.999999px;stroke-linecap:butt;stroke-linejoin:miter;stroke-opacity:1"
       d="m -36.994141,132.42578 115.146485,90.55664 115.148436,-90.55664 -37.10742,2.7461 -78.041016,45.1621 -78.03906275,-45.1621 z"
       transform="matrix(0.26458333,0,0,0.26458333,50.131709,107.33168)" />
    <path
       style="fill:#c87137;stroke:none;stroke-width:0.264583px;stroke-linecap:butt;stroke-linejoin:miter;stroke-opacity:1"
       d="m 70.809709,107.33168 20.64827,35.76441 9.817821,-0.72686 -0.96593,-11.10471 z"
       id="path491-3-8"
       sodipodi:nodetypes="ccccc" />
  </g>
</svg>
